<svg width="138" height="81" viewBox="0 0 138 81" fill="none" xmlns="http://www.w3.org/2000/svg">
<path d="M5.56128 11.7201L1.93151 15.1588L8.80896 22.4184L12.4387 18.9796L5.56128 11.7201ZM48.4744 23.4756C49.6483 25.975 52.6262 27.0495 55.1257 25.8755C57.6251 24.7015 58.6996 21.7236 57.5256 19.2242L48.4744 23.4756ZM12.4387 18.9796C16.7579 14.8878 23.6373 10.6042 30.3196 10.0583C33.5192 9.7969 36.6312 10.3874 39.5601 12.2369C42.5276 14.1108 45.6723 17.51 48.4744 23.4756L57.5256 19.2242C54.1277 11.9898 49.8599 6.91401 44.8993 3.78158C39.9001 0.624825 34.5683 -0.322129 29.5054 0.091486C19.6627 0.895581 10.7421 6.81195 5.56128 11.7201L12.4387 18.9796Z" fill="#AF5C3C"/>
<path d="M132.439 11.7201L136.068 15.1588L129.191 22.4184L125.561 18.9796L132.439 11.7201ZM89.5256 23.4756C88.3517 25.975 85.3738 27.0495 82.8743 25.8755C80.3749 24.7015 79.3004 21.7236 80.4744 19.2242L89.5256 23.4756ZM125.561 18.9796C121.242 14.8878 114.363 10.6042 107.68 10.0583C104.481 9.7969 101.369 10.3874 98.4399 12.2369C95.4724 14.1108 92.3277 17.51 89.5256 23.4756L80.4744 19.2242C83.8723 11.9898 88.1401 6.91401 93.1007 3.78158C98.0999 0.624825 103.432 -0.322129 108.495 0.091486C118.337 0.895581 127.258 6.81195 132.439 11.7201L125.561 18.9796Z" fill="#AF5C3C"/>
<path d="M26.2073 59.7747L24.7825 54.982L34.3678 52.1323L35.7927 56.925L26.2073 59.7747ZM64.4744 56.2242C65.6483 53.7247 68.6262 52.6502 71.1257 53.8242C73.6251 54.9982 74.6996 57.9761 73.5256 60.4756L64.4744 56.2242ZM35.7927 56.925C38.2012 65.0263 43.4313 69.6 48.0862 70.233C52.2335 70.7969 58.7181 68.4794 64.4744 56.2242L73.5256 60.4756C66.8819 74.6203 57.1165 81.5529 46.7388 80.1418C36.8687 78.7997 29.2988 70.1734 26.2073 59.7747L35.7927 56.925Z" fill="#AF5C3C"/>
<path d="M111.793 59.7747L113.218 54.982L103.632 52.1323L102.207 56.925L111.793 59.7747ZM73.5256 56.2242C72.3517 53.7247 69.3738 52.6502 66.8743 53.8242C64.3749 54.9982 63.3004 57.9761 64.4744 60.4756L73.5256 56.2242ZM102.207 56.925C99.7988 65.0263 94.5687 69.6 89.9138 70.233C85.7665 70.7969 79.2819 68.4794 73.5256 56.2242L64.4744 60.4756C71.1181 74.6203 80.8835 81.5529 91.2612 80.1418C101.131 78.7997 108.701 70.1734 111.793 59.7747L102.207 56.925Z" fill="#AF5C3C"/>
</svg>
